<svg width="107" height="28" viewBox="0 0 107 28" fill="none" xmlns="http://www.w3.org/2000/svg">
<path d="M7.86513 12.8028C10.4362 15.867 9.75028 16.4425 8.90413 17.1525C8.05798 17.8625 7.37204 18.4381 4.80095 15.374C2.17001 12.2386 2.91579 11.7343 3.76194 11.0243C4.60809 10.3143 5.29403 9.73874 7.86513 12.8028Z" fill="#76C1B2"/>
<path d="M19.882 8.34153C20.5766 12.2807 19.6947 12.4362 18.607 12.628C17.5192 12.8198 16.6373 12.9753 15.9428 9.03612C15.232 5.00528 16.13 4.94149 17.2178 4.74968C18.3056 4.55787 19.1874 4.40238 19.882 8.34153Z" fill="#76C1B2"/>
<path d="M13.4911 9.59075C15.1815 13.2159 14.37 13.5943 13.3689 14.0611C12.3678 14.528 11.5563 14.9064 9.86588 11.2812C8.13609 7.57169 8.98698 7.27765 9.98806 6.81084C10.9891 6.34403 11.8007 5.9656 13.4911 9.59075Z" fill="#76C1B2"/>
<ellipse cx="15.9047" cy="19.4991" rx="7" ry="5" transform="rotate(-25 15.9047 19.4991)" fill="#76C1B2"/>
<path d="M47.0069 23.968C46.7722 24.032 46.4309 24.096 45.9829 24.16C45.5562 24.224 45.0869 24.256 44.5749 24.256C43.5082 24.256 42.7402 24.0853 42.2709 23.744C41.8015 23.3813 41.5669 22.6987 41.5669 21.696V14.144C41.5669 13.4827 41.3642 13.0027 40.9589 12.704C40.5749 12.384 40.0629 12.224 39.4229 12.224C38.9962 12.224 38.5909 12.2773 38.2069 12.384C37.8442 12.4907 37.4922 12.6293 37.1509 12.8V23.968C36.9162 24.032 36.5749 24.096 36.1269 24.16C35.7002 24.224 35.2309 24.256 34.7189 24.256C33.6522 24.256 32.8842 24.0853 32.4149 23.744C31.9455 23.3813 31.7109 22.6987 31.7109 21.696V12.064C31.7109 11.488 31.8282 11.0187 32.0629 10.656C32.3189 10.2933 32.6602 9.96267 33.0869 9.664C33.8122 9.152 34.7189 8.74667 35.8069 8.448C36.9162 8.128 38.1429 7.968 39.4869 7.968C41.8975 7.968 43.7535 8.50133 45.0549 9.568C46.3562 10.6133 47.0069 12.0853 47.0069 13.984V23.968ZM66.4631 16.224C66.4631 17.504 66.2605 18.656 65.8551 19.68C65.4711 20.704 64.9058 21.5787 64.1591 22.304C63.4338 23.008 62.5591 23.552 61.5351 23.936C60.5111 24.32 59.3591 24.512 58.0791 24.512C56.7991 24.512 55.6471 24.3307 54.6231 23.968C53.5991 23.584 52.7138 23.04 51.9671 22.336C51.2418 21.6107 50.6765 20.736 50.2711 19.712C49.8871 18.688 49.6951 17.5253 49.6951 16.224C49.6951 14.9653 49.8978 13.824 50.3031 12.8C50.7085 11.776 51.2738 10.912 51.9991 10.208C52.7458 9.48267 53.6311 8.928 54.6551 8.544C55.6791 8.16 56.8205 7.968 58.0791 7.968C59.3378 7.968 60.4791 8.17067 61.5031 8.576C62.5271 8.96 63.4018 9.51467 64.1271 10.24C64.8738 10.944 65.4498 11.808 65.8551 12.832C66.2605 13.856 66.4631 14.9867 66.4631 16.224ZM58.0791 12.224C57.1831 12.224 56.4898 12.576 55.9991 13.28C55.5085 13.9627 55.2631 14.944 55.2631 16.224C55.2631 17.568 55.5085 18.5813 55.9991 19.264C56.4898 19.9253 57.1831 20.256 58.0791 20.256C58.9751 20.256 59.6685 19.9147 60.1591 19.232C60.6498 18.5493 60.8951 17.5467 60.8951 16.224C60.8951 14.944 60.6498 13.9627 60.1591 13.28C59.6685 12.576 58.9751 12.224 58.0791 12.224ZM85.2131 16.224C85.2131 17.504 85.0105 18.656 84.6051 19.68C84.2211 20.704 83.6558 21.5787 82.9091 22.304C82.1838 23.008 81.3091 23.552 80.2851 23.936C79.2611 24.32 78.1091 24.512 76.8291 24.512C75.5491 24.512 74.3971 24.3307 73.3731 23.968C72.3491 23.584 71.4638 23.04 70.7171 22.336C69.9918 21.6107 69.4265 20.736 69.0211 19.712C68.6371 18.688 68.4451 17.5253 68.4451 16.224C68.4451 14.9653 68.6478 13.824 69.0531 12.8C69.4585 11.776 70.0238 10.912 70.7491 10.208C71.4958 9.48267 72.3811 8.928 73.4051 8.544C74.4291 8.16 75.5705 7.968 76.8291 7.968C78.0878 7.968 79.2291 8.17067 80.2531 8.576C81.2771 8.96 82.1518 9.51467 82.8771 10.24C83.6238 10.944 84.1998 11.808 84.6051 12.832C85.0105 13.856 85.2131 14.9867 85.2131 16.224ZM76.8291 12.224C75.9331 12.224 75.2398 12.576 74.7491 13.28C74.2585 13.9627 74.0131 14.944 74.0131 16.224C74.0131 17.568 74.2585 18.5813 74.7491 19.264C75.2398 19.9253 75.9331 20.256 76.8291 20.256C77.7251 20.256 78.4185 19.9147 78.9091 19.232C79.3998 18.5493 79.6451 17.5467 79.6451 16.224C79.6451 14.944 79.3998 13.9627 78.9091 13.28C78.4185 12.576 77.7251 12.224 76.8291 12.224ZM93.3711 23.968C93.1365 24.032 92.7951 24.096 92.3471 24.16C91.9205 24.224 91.4511 24.256 90.9391 24.256C89.8725 24.256 89.1045 24.0853 88.6351 23.744C88.1658 23.3813 87.9311 22.6987 87.9311 21.696V3.136C88.1658 3.072 88.4965 3.008 88.9231 2.944C89.3711 2.88 89.8511 2.848 90.3631 2.848C91.4298 2.848 92.1978 3.02933 92.6671 3.392C93.1365 3.73333 93.3711 4.40533 93.3711 5.408V13.856L98.8751 8.224C99.9845 8.224 100.87 8.46933 101.531 8.96C102.214 9.45067 102.555 10.0693 102.555 10.816C102.555 11.136 102.502 11.4347 102.395 11.712C102.288 11.968 102.118 12.2347 101.883 12.512C101.67 12.7893 101.382 13.088 101.019 13.408C100.678 13.7067 100.272 14.0587 99.8031 14.464L97.9151 16.096L103.067 21.184C102.96 22.1867 102.662 22.9547 102.171 23.488C101.702 24.0213 101.008 24.288 100.091 24.288C99.4085 24.288 98.8005 24.128 98.2671 23.808C97.7338 23.4667 97.1578 22.9013 96.5391 22.112L93.3711 18.176V23.968Z" fill="black"/>
</svg>
